<?xml version="1.0" encoding="UTF-8" ?>
<!DOCTYPE svg PUBLIC "-//W3C//DTD SVG 1.1//EN" "http://www.w3.org/Graphics/SVG/1.1/DTD/svg11.dtd">
<svg width="913pt" height="893pt" viewBox="0 0 913 893" version="1.1" xmlns="http://www.w3.org/2000/svg">
<g id="#fefefeff">
</g>
<g id="#0e0e0eff">
<path fill="#0e0e0e" opacity="1.00" d=" M 82.54 66.18 C 101.56 66.12 120.58 65.96 139.59 66.22 C 192.02 193.85 244.40 321.50 296.76 449.16 C 308.56 478.07 320.58 506.90 332.24 535.87 C 317.19 537.39 302.04 537.03 286.94 536.93 C 282.69 537.12 279.35 533.77 277.96 530.03 C 273.00 518.61 268.30 507.08 263.42 495.62 C 203.67 353.46 143.16 211.63 83.58 69.40 C 83.20 68.33 82.86 67.26 82.54 66.18 Z" />
<path fill="#0e0e0e" opacity="1.00" d=" M 799.44 66.19 C 818.32 65.99 837.20 66.05 856.08 66.26 C 854.06 74.54 850.53 82.34 847.16 90.14 C 790.44 223.54 733.88 357.00 677.52 490.56 C 671.77 503.54 666.96 516.95 660.56 529.63 C 659.08 531.97 658.09 535.33 655.05 536.01 C 650.12 537.14 645.02 536.88 640.00 536.99 C 629.33 536.94 618.65 537.10 607.98 536.80 C 610.43 526.97 614.50 517.65 618.36 508.32 C 672.87 374.83 727.38 241.35 781.92 107.87 C 787.66 93.93 793.12 79.88 799.44 66.19 Z" />
<path fill="#0e0e0e" opacity="1.00" d=" M 449.11 285.08 C 455.73 276.93 462.17 268.54 470.08 261.56 C 482.65 277.46 498.63 291.19 506.81 310.14 C 533.58 374.53 561.20 438.56 588.17 502.87 C 592.75 514.08 598.31 524.99 601.20 536.80 C 585.50 536.76 569.80 536.72 554.10 536.97 C 544.42 518.86 537.82 499.33 529.39 480.64 C 511.88 440.87 495.52 400.60 478.20 360.74 C 475.22 354.08 472.48 347.29 469.18 340.78 C 453.66 374.95 439.91 409.92 423.83 443.85 C 418.37 454.36 415.90 466.09 410.80 476.76 C 401.22 496.70 394.88 518.24 382.88 536.97 C 367.85 536.92 352.78 537.24 337.80 535.86 C 352.96 496.59 370.15 458.15 386.33 419.30 C 393.94 401.50 401.01 383.47 408.74 365.73 C 414.10 353.07 419.66 340.49 424.76 327.73 C 428.59 318.71 431.65 309.29 436.96 300.99 C 440.53 295.33 445.01 290.34 449.11 285.08 Z" />
<path fill="#0e0e0e" opacity="1.00" d=" M 138.47 357.68 C 141.49 356.73 144.81 355.89 147.93 356.89 C 153.51 358.45 157.81 363.51 158.88 369.14 C 160.39 378.95 149.94 388.24 140.34 385.57 C 136.96 384.41 133.67 382.40 131.60 379.43 C 127.13 372.10 130.35 360.91 138.47 357.68 Z" />
<path fill="#0e0e0e" opacity="1.00" d=" M 782.43 359.50 C 786.43 358.47 790.76 358.37 794.84 359.18 C 798.98 360.12 801.71 363.92 803.17 367.68 C 806.74 377.26 797.61 389.85 787.04 386.98 C 778.86 386.15 773.83 377.06 775.67 369.45 C 776.37 365.37 778.82 361.58 782.43 359.50 Z" />
<path fill="#0e0e0e" opacity="1.00" d=" M 199.78 384.80 C 203.24 382.57 207.28 381.22 211.41 381.10 C 212.01 385.12 214.30 389.78 211.46 393.45 C 207.93 398.21 203.25 401.93 199.03 406.04 C 195.48 409.47 192.16 413.23 188.00 415.96 C 185.26 417.76 181.69 417.40 178.78 416.23 C 173.30 414.16 168.31 411.03 162.94 408.72 C 162.68 417.14 162.82 425.57 162.81 434.00 C 162.73 442.46 164.18 450.94 167.04 458.91 C 171.52 472.64 176.63 486.15 181.11 499.88 C 183.31 506.99 186.20 514.24 185.65 521.81 C 184.00 527.63 176.51 529.23 171.37 527.48 C 165.93 525.50 164.16 519.39 162.57 514.42 C 156.97 497.58 151.09 480.82 144.72 464.25 C 134.94 482.57 132.29 503.67 123.31 522.33 C 121.15 526.65 116.14 530.22 111.18 528.62 C 105.78 527.22 100.70 521.46 102.74 515.67 C 108.72 494.95 117.20 475.06 123.52 454.46 C 125.95 444.54 126.54 434.18 125.55 424.03 C 125.03 415.41 124.84 406.76 125.19 398.14 C 125.39 395.13 125.67 391.04 129.30 390.28 C 139.33 388.72 149.59 389.13 159.60 390.58 C 167.84 391.85 174.68 396.88 182.04 400.39 C 188.33 395.62 193.11 389.09 199.78 384.80 Z" />
<path fill="#0e0e0e" opacity="1.00" d=" M 725.29 381.80 C 737.56 383.53 744.48 394.96 753.19 402.45 C 759.37 399.35 764.90 394.99 771.42 392.57 C 783.25 390.36 795.49 390.84 807.29 393.05 C 807.46 404.70 806.84 416.35 806.93 428.01 C 807.09 436.90 806.44 445.91 808.34 454.66 C 815.03 477.23 823.81 499.16 829.58 521.99 C 829.97 528.47 823.37 534.32 816.98 533.23 C 811.92 532.54 809.81 527.10 807.96 523.03 C 803.83 510.20 799.68 497.38 795.54 484.56 C 793.73 478.78 791.80 473.03 789.37 467.49 C 780.36 486.67 777.19 508.02 768.19 527.21 C 766.28 530.68 762.46 534.19 758.20 532.74 C 755.16 531.55 751.79 530.36 749.46 528.07 C 750.15 521.17 750.46 514.13 752.62 507.48 C 756.43 495.96 760.31 484.47 764.03 472.92 C 766.95 463.68 770.57 454.51 771.25 444.74 C 772.63 433.56 771.43 422.31 770.49 411.16 C 763.85 414.12 757.65 417.93 751.17 421.19 C 742.35 413.60 733.61 405.84 725.95 397.07 C 722.17 392.77 724.78 386.78 725.29 381.80 Z" />
<path fill="#0e0e0e" opacity="1.00" d=" M 497.36 423.25 C 499.99 422.13 503.35 424.11 503.57 426.98 C 503.23 432.39 500.24 437.06 497.72 441.69 C 492.38 451.40 486.11 460.66 482.12 471.04 C 481.01 473.90 480.98 477.00 480.90 480.02 C 480.80 485.64 480.28 491.25 480.35 496.88 C 472.71 497.07 465.07 497.03 457.44 496.90 C 457.41 490.06 457.35 483.23 457.28 476.40 C 450.87 477.44 444.60 479.20 438.19 480.21 C 432.60 471.98 426.86 463.53 424.00 453.91 C 422.26 449.71 428.68 446.37 431.53 449.45 C 436.19 455.03 439.39 461.64 443.27 467.77 C 453.51 463.08 464.25 458.94 475.63 458.44 C 481.62 450.10 485.48 440.49 490.66 431.67 C 492.45 428.57 494.28 425.25 497.36 423.25 Z" />
<path fill="#0e0e0e" opacity="1.00" d=" M 460.65 452.33 C 456.50 446.96 458.40 437.35 465.18 435.12 C 470.05 434.62 474.52 437.48 478.65 439.71 C 477.72 445.21 477.08 452.75 470.90 454.90 C 467.40 455.17 463.10 455.32 460.65 452.33 Z" />
<path fill="#0e0e0e" opacity="1.00" d=" M 457.20 503.02 C 464.38 503.14 471.59 502.70 478.75 503.30 C 481.57 504.55 482.19 508.02 483.39 510.58 C 487.55 522.38 492.11 534.06 495.86 546.01 C 497.29 551.13 499.85 556.92 497.10 562.05 C 495.43 565.46 489.70 565.07 488.40 561.58 C 483.88 552.79 481.64 543.07 478.14 533.86 C 476.20 527.32 474.14 519.41 466.87 516.97 C 459.38 531.39 455.12 547.25 447.78 561.75 C 446.85 564.15 443.66 564.40 441.59 563.49 C 438.07 561.75 436.23 557.14 437.59 553.46 C 443.41 536.37 450.51 519.77 457.20 503.02 Z" />
<path fill="#0e0e0e" opacity="1.00" d=" M 770.58 699.47 C 793.12 687.95 821.62 692.05 841.45 707.23 C 839.87 710.85 837.68 714.16 835.76 717.60 C 829.84 714.94 824.71 710.77 818.63 708.42 C 814.16 706.59 809.29 706.14 804.54 705.65 C 795.39 704.20 785.71 705.33 777.34 709.39 C 764.96 715.18 762.34 735.25 773.67 743.36 C 782.82 749.23 793.69 751.26 804.10 753.78 C 816.60 756.40 829.86 759.57 839.50 768.51 C 851.64 781.34 849.89 804.14 836.42 815.39 C 832.58 818.67 827.74 820.38 823.02 821.99 C 810.42 826.05 796.79 826.84 783.83 824.08 C 770.75 821.67 759.22 814.68 748.17 807.64 C 749.67 803.77 751.42 799.98 753.75 796.54 C 764.50 802.98 775.08 811.16 788.00 812.31 C 800.26 814.01 813.77 814.40 824.70 807.67 C 832.89 803.35 835.23 792.21 831.88 784.08 C 830.06 779.58 826.47 775.87 822.08 773.82 C 808.12 766.99 792.54 764.91 777.91 759.99 C 770.58 757.46 762.69 754.59 758.02 748.00 C 746.83 732.47 753.31 707.68 770.58 699.47 Z" />
<path fill="#0e0e0e" opacity="1.00" d=" M 586.47 696.65 C 600.63 695.07 614.96 700.21 626.02 708.93 C 637.80 718.27 646.78 731.64 649.29 746.60 C 652.87 763.90 650.35 782.79 640.74 797.79 C 633.33 808.76 622.62 817.87 609.85 821.85 C 598.13 825.87 585.00 826.05 573.37 821.57 C 561.58 816.78 551.04 808.64 544.03 797.94 C 535.11 784.52 531.18 767.92 533.09 751.93 C 536.42 724.71 558.60 699.67 586.47 696.65 M 581.35 709.41 C 564.86 713.63 552.78 728.24 548.10 744.15 C 543.93 758.22 545.19 773.95 552.03 787.00 C 557.58 797.97 567.15 807.04 578.79 811.21 C 585.66 813.39 592.97 812.13 600.03 812.04 C 609.12 811.85 616.91 806.31 623.02 800.02 C 642.25 781.12 642.87 748.08 627.14 726.85 C 620.73 718.14 611.19 711.76 600.69 709.20 C 594.30 708.26 587.73 708.56 581.35 709.41 Z" />
<path fill="#0e0e0e" opacity="1.00" d=" M 114.19 702.32 C 132.75 702.46 151.37 701.32 169.87 703.22 C 177.30 704.82 183.64 710.25 186.96 717.02 C 189.36 721.63 189.34 726.97 189.82 732.02 C 189.89 741.75 183.06 749.51 176.59 756.01 C 183.27 760.21 189.96 765.62 192.48 773.38 C 193.26 778.77 193.15 784.30 192.79 789.73 C 189.67 802.79 176.29 811.95 163.04 811.37 C 152.38 811.92 141.70 811.83 131.05 811.18 C 124.56 810.87 118.04 811.03 111.60 810.08 C 112.67 774.17 112.38 738.21 114.19 702.32 M 123.08 711.44 C 122.90 724.65 122.85 737.87 122.89 751.09 C 134.25 752.17 145.69 752.34 157.08 751.88 C 161.70 751.22 166.86 751.67 170.84 748.82 C 182.76 740.87 181.71 719.56 168.34 713.67 C 153.69 709.06 138.15 711.65 123.08 711.44 M 122.92 760.79 C 122.90 773.86 122.90 786.93 122.93 800.01 C 137.07 801.13 151.34 803.97 165.51 801.65 C 172.50 800.67 178.59 795.64 181.11 789.09 C 183.32 783.72 182.92 777.57 180.80 772.25 C 178.30 766.58 172.74 762.72 166.88 761.15 C 152.26 760.10 137.57 760.80 122.92 760.79 Z" />
<path fill="#0e0e0e" opacity="1.00" d=" M 324.99 702.13 C 337.00 702.47 349.00 703.10 361.02 703.17 C 367.22 703.58 373.55 702.76 379.64 704.34 C 391.84 707.39 401.98 717.22 405.78 729.16 C 408.02 735.78 407.12 742.88 406.71 749.70 C 404.56 762.57 393.67 771.65 382.57 777.16 C 390.16 792.50 401.08 806.06 407.63 821.94 C 403.74 821.97 399.85 822.14 395.96 822.36 C 386.91 807.91 377.93 793.42 368.80 779.02 C 357.38 779.06 345.95 778.59 334.54 779.08 C 334.52 793.16 334.66 807.30 333.21 821.32 C 329.14 821.04 325.05 820.86 321.02 820.21 C 321.03 804.47 322.19 788.74 322.04 772.99 C 322.03 755.62 322.75 738.27 323.38 720.91 C 324.19 714.67 323.71 708.31 324.99 702.13 M 336.03 713.46 C 333.45 731.11 334.48 749.01 334.52 766.79 C 345.68 767.38 356.85 768.56 368.04 767.76 C 372.82 767.29 378.02 767.93 382.31 765.30 C 392.45 759.92 396.94 747.38 395.32 736.42 C 394.30 727.27 388.15 718.52 379.17 715.74 C 365.27 710.58 350.37 714.68 336.03 713.46 Z" />
</g>
</svg>
